<svg xmlns="http://www.w3.org/2000/svg" viewBox="0 0 900 520" role="img" aria-label="Production Team Leader advert image"><defs><linearGradient id="blue" x1="0" y1="0" x2="1" y2="1"><stop offset="0" stop-color="#2175d9"/><stop offset="1" stop-color="#4f86f7"/></linearGradient><filter id="shadow" x="-20%" y="-20%" width="140%" height="150%"><feDropShadow dx="0" dy="14" stdDeviation="14" flood-color="#0b153f" flood-opacity=".16"/></filter></defs><rect width="900" height="520" fill="#0b153f"/><circle cx="738.0" cy="104.0" r="156.0" fill="#2175d9" opacity=".13"/><circle cx="153.0" cy="405.6" r="124.8" fill="#4f86f7" opacity=".14"/><rect x="62" y="58" width="776" height="404" rx="0" fill="#fff" opacity=".96" filter="url(#shadow)"/><path d="M112 116h190M112 153h286" stroke="#d9e0ef" stroke-width="14" stroke-linecap="round"/><text x="112" y="407" font-family="Arial, Helvetica, sans-serif" font-size="38" font-weight="700" fill="#0b153f">Production Team Leader</text><text x="112" y="446" font-family="Arial, Helvetica, sans-serif" font-size="22" font-weight="700" fill="#2175d9">Production</text><circle cx="760" cy="124" r="36" fill="#2175d9"/><path d="M760 104v40M740 124h40" stroke="#fff" stroke-width="10" stroke-linecap="round"/><g transform="translate(165 10)"><g><g><circle cx="164.8" cy="222.9" r="11.2" fill="#5b6477"/><path d="M150.2 241.9h29.0l7.8 45.8h-44.6z" fill="#4f86f7"/><path d="M160.3 288.8v26.8M172.6 288.8v26.8" stroke="#0b153f" stroke-width="5.6" stroke-linecap="round"/></g><g><circle cx="273.2" cy="211.2" r="12.7" fill="#5b6477"/><path d="M256.7 232.8h33.0l8.9 52.1h-50.8z" fill="#4f86f7"/><path d="M268.2 286.2v30.5M282.1 286.2v30.5" stroke="#0b153f" stroke-width="6.4" stroke-linecap="round"/></g><g><circle cx="389.5" cy="222.9" r="11.2" fill="#5b6477"/><path d="M375.0 241.9h29.0l7.8 45.8h-44.6z" fill="#4f86f7"/><path d="M385.0 288.8v26.8M397.3 288.8v26.8" stroke="#0b153f" stroke-width="5.6" stroke-linecap="round"/></g><path d="M141.5 371.0h341.0" stroke="#2175d9" stroke-width="12.4" stroke-linecap="round"/></g></g></svg>