<svg xmlns="http://www.w3.org/2000/svg" viewBox="0 0 900 520" role="img" aria-label="Dispatch Worker advert image"><defs><linearGradient id="blue" x1="0" y1="0" x2="1" y2="1"><stop offset="0" stop-color="#2175d9"/><stop offset="1" stop-color="#4f86f7"/></linearGradient><filter id="shadow" x="-20%" y="-20%" width="140%" height="150%"><feDropShadow dx="0" dy="14" stdDeviation="14" flood-color="#0b153f" flood-opacity=".16"/></filter></defs><rect width="900" height="520" fill="#0b153f"/><circle cx="738.0" cy="104.0" r="156.0" fill="#2175d9" opacity=".13"/><circle cx="153.0" cy="405.6" r="124.8" fill="#4f86f7" opacity=".14"/><rect x="62" y="58" width="776" height="404" rx="0" fill="#fff" opacity=".96" filter="url(#shadow)"/><path d="M112 116h190M112 153h286" stroke="#d9e0ef" stroke-width="14" stroke-linecap="round"/><text x="112" y="407" font-family="Arial, Helvetica, sans-serif" font-size="38" font-weight="700" fill="#0b153f">Dispatch Worker</text><text x="112" y="446" font-family="Arial, Helvetica, sans-serif" font-size="22" font-weight="700" fill="#2175d9">Warehousing &amp; Logistics</text><circle cx="760" cy="124" r="36" fill="#2175d9"/><path d="M760 104v40M740 124h40" stroke="#fff" stroke-width="10" stroke-linecap="round"/><g transform="translate(165 10)"><g><rect x="110.5" y="262.5" width="403.0" height="83.7" rx="20.2" fill="url(#blue)"/><path d="M130.7 305.9h362.7" stroke="#fff" stroke-width="7.8" stroke-linecap="round"/><circle cx="144.6" cy="304.4" r="10.8" fill="#5b6477"/><circle cx="188.0" cy="304.4" r="10.8" fill="#5b6477"/><circle cx="231.4" cy="304.4" r="10.8" fill="#5b6477"/><circle cx="274.8" cy="304.4" r="10.8" fill="#5b6477"/><circle cx="318.2" cy="304.4" r="10.8" fill="#5b6477"/><circle cx="361.6" cy="304.4" r="10.8" fill="#5b6477"/><circle cx="405.0" cy="304.4" r="10.8" fill="#5b6477"/><circle cx="448.4" cy="304.4" r="10.8" fill="#5b6477"/></g><g stroke="#0b153f" stroke-width="2.2" stroke-linejoin="round"><rect x="381.8" y="250.1" width="46.9" height="37.9" rx="4.5" fill="#fff"/><path d="M381.8 261.3h46.9M405.2 250.1v37.9" stroke="#d9e0ef"/><rect x="435.3" y="260.1" width="51.3" height="37.9" rx="4.5" fill="#eaf2ff"/><path d="M435.3 271.3h51.3M461.0 260.1v37.9" stroke="#d9e0ef"/></g><g><circle cx="560.0" cy="204.8" r="10.8" fill="#5b6477"/><path d="M545.9 223.3h28.2l7.6 44.5h-43.4z" fill="#4f86f7"/><path d="M555.7 268.9v26.0M567.6 268.9v26.0" stroke="#0b153f" stroke-width="5.4" stroke-linecap="round"/></g></g></svg>