<svg xmlns="http://www.w3.org/2000/svg" viewBox="0 0 900 520" role="img" aria-label="Shift Production Worker advert image"><defs><linearGradient id="blue" x1="0" y1="0" x2="1" y2="1"><stop offset="0" stop-color="#2175d9"/><stop offset="1" stop-color="#4f86f7"/></linearGradient><filter id="shadow" x="-20%" y="-20%" width="140%" height="150%"><feDropShadow dx="0" dy="14" stdDeviation="14" flood-color="#0b153f" flood-opacity=".16"/></filter></defs><rect width="900" height="520" fill="#0b153f"/><circle cx="738.0" cy="104.0" r="156.0" fill="#2175d9" opacity=".13"/><circle cx="153.0" cy="405.6" r="124.8" fill="#4f86f7" opacity=".14"/><rect x="62" y="58" width="776" height="404" rx="0" fill="#fff" opacity=".96" filter="url(#shadow)"/><path d="M112 116h190M112 153h286" stroke="#d9e0ef" stroke-width="14" stroke-linecap="round"/><text x="112" y="407" font-family="Arial, Helvetica, sans-serif" font-size="38" font-weight="700" fill="#0b153f">Shift Production Worker</text><text x="112" y="446" font-family="Arial, Helvetica, sans-serif" font-size="22" font-weight="700" fill="#2175d9">Production</text><circle cx="760" cy="124" r="36" fill="#2175d9"/><path d="M760 104v40M740 124h40" stroke="#fff" stroke-width="10" stroke-linecap="round"/><g transform="translate(165 10)"><g><rect x="118.2" y="262.5" width="465.0" height="83.7" rx="20.2" fill="url(#blue)"/><path d="M138.4 305.9h424.7" stroke="#fff" stroke-width="7.8" stroke-linecap="round"/><circle cx="152.3" cy="304.4" r="10.8" fill="#5b6477"/><circle cx="195.8" cy="304.4" r="10.8" fill="#5b6477"/><circle cx="239.1" cy="304.4" r="10.8" fill="#5b6477"/><circle cx="282.6" cy="304.4" r="10.8" fill="#5b6477"/><circle cx="325.9" cy="304.4" r="10.8" fill="#5b6477"/><circle cx="369.4" cy="304.4" r="10.8" fill="#5b6477"/><circle cx="412.8" cy="304.4" r="10.8" fill="#5b6477"/><circle cx="456.1" cy="304.4" r="10.8" fill="#5b6477"/><circle cx="499.5" cy="304.4" r="10.8" fill="#5b6477"/><circle cx="543.0" cy="304.4" r="10.8" fill="#5b6477"/></g><rect x="195.8" y="209.8" width="68.2" height="55.8" rx="10.8" fill="#fff"/></g></svg>