<svg xmlns="http://www.w3.org/2000/svg" viewBox="0 0 900 520" role="img" aria-label="Order Picker advert image"><defs><linearGradient id="blue" x1="0" y1="0" x2="1" y2="1"><stop offset="0" stop-color="#2175d9"/><stop offset="1" stop-color="#4f86f7"/></linearGradient><filter id="shadow" x="-20%" y="-20%" width="140%" height="150%"><feDropShadow dx="0" dy="14" stdDeviation="14" flood-color="#0b153f" flood-opacity=".16"/></filter></defs><rect width="900" height="520" fill="#0b153f"/><circle cx="738.0" cy="104.0" r="156.0" fill="#2175d9" opacity=".13"/><circle cx="153.0" cy="405.6" r="124.8" fill="#4f86f7" opacity=".14"/><rect x="62" y="58" width="776" height="404" rx="0" fill="#fff" opacity=".96" filter="url(#shadow)"/><path d="M112 116h190M112 153h286" stroke="#d9e0ef" stroke-width="14" stroke-linecap="round"/><text x="112" y="407" font-family="Arial, Helvetica, sans-serif" font-size="38" font-weight="700" fill="#0b153f">Order Picker</text><text x="112" y="446" font-family="Arial, Helvetica, sans-serif" font-size="22" font-weight="700" fill="#2175d9">Warehousing &amp; Logistics</text><circle cx="760" cy="124" r="36" fill="#2175d9"/><path d="M760 104v40M740 124h40" stroke="#fff" stroke-width="10" stroke-linecap="round"/><g transform="translate(165 10)"><g stroke="#0b153f" stroke-width="3.1" stroke-linejoin="round"><rect x="126.0" y="223.8" width="65.1" height="52.7" rx="6.2" fill="#fff"/><path d="M126.0 239.2h65.1M158.6 223.8v52.7" stroke="#d9e0ef"/><rect x="200.4" y="237.7" width="71.3" height="52.7" rx="6.2" fill="#eaf2ff"/><path d="M200.4 253.2h71.3M236.1 237.7v52.7" stroke="#d9e0ef"/></g><g><circle cx="412.8" cy="205.2" r="11.6" fill="#5b6477"/><path d="M397.6 224.9h30.2l8.1 47.7h-46.5z" fill="#4f86f7"/><path d="M408.1 273.7v27.9M420.9 273.7v27.9" stroke="#0b153f" stroke-width="5.8" stroke-linecap="round"/></g></g></svg>