<svg xmlns="http://www.w3.org/2000/svg" viewBox="0 0 900 520" role="img" aria-label="Forklift Support Operative advert image"><defs><linearGradient id="blue" x1="0" y1="0" x2="1" y2="1"><stop offset="0" stop-color="#2175d9"/><stop offset="1" stop-color="#4f86f7"/></linearGradient><filter id="shadow" x="-20%" y="-20%" width="140%" height="150%"><feDropShadow dx="0" dy="14" stdDeviation="14" flood-color="#0b153f" flood-opacity=".16"/></filter></defs><rect width="900" height="520" fill="#0b153f"/><circle cx="738.0" cy="104.0" r="156.0" fill="#2175d9" opacity=".13"/><circle cx="153.0" cy="405.6" r="124.8" fill="#4f86f7" opacity=".14"/><rect x="62" y="58" width="776" height="404" rx="0" fill="#fff" opacity=".96" filter="url(#shadow)"/><path d="M112 116h190M112 153h286" stroke="#d9e0ef" stroke-width="14" stroke-linecap="round"/><text x="112" y="407" font-family="Arial, Helvetica, sans-serif" font-size="38" font-weight="700" fill="#0b153f">Forklift Support Operative</text><text x="112" y="446" font-family="Arial, Helvetica, sans-serif" font-size="22" font-weight="700" fill="#2175d9">Warehousing &amp; Logistics</text><circle cx="760" cy="124" r="36" fill="#2175d9"/><path d="M760 104v40M740 124h40" stroke="#fff" stroke-width="10" stroke-linecap="round"/><g transform="translate(165 10)"><g><rect x="126.0" y="265.6" width="127.1" height="65.1" rx="12.4" fill="url(#blue)"/><path d="M166.3 265.6v-43.4h48.1l31.0 43.4" fill="none" stroke="#0b153f" stroke-width="9.3" stroke-linecap="round" stroke-linejoin="round"/><path d="M259.3 219.1v120.9M259.3 330.7h68.2" stroke="#0b153f" stroke-width="9.3" stroke-linecap="round"/><circle cx="160.1" cy="336.9" r="18.6" fill="#0b153f"/><circle cx="232.9" cy="336.9" r="18.6" fill="#0b153f"/></g></g></svg>